<?xml version="1.0" standalone="no"?>
<!DOCTYPE svg PUBLIC "-//W3C//DTD SVG 20010904//EN"
 "http://www.w3.org/TR/2001/REC-SVG-20010904/DTD/svg10.dtd">
<svg version="1.0" xmlns="http://www.w3.org/2000/svg"
 width="2560.000000pt" height="2560.000000pt" viewBox="0 0 2560.000000 2560.000000"
 preserveAspectRatio="xMidYMid meet">

<g transform="translate(0.000000,2560.000000) scale(0.100000,-0.100000)"
fill="#000000" stroke="none">
<path d="M25462 18840 c3 -9 -7 -25 -23 -40 -16 -13 -29 -28 -29 -33 0 -4 17
8 37 28 30 29 34 38 23 48 -10 10 -12 9 -8 -3z"/>
<path d="M25385 18742 c3 -3 -1 -12 -7 -21 -8 -10 -4 -9 10 3 26 23 26 23 7
23 -8 0 -13 -3 -10 -5z"/>
<path d="M25332 18688 c-7 -7 -12 -16 -12 -21 0 -5 7 -1 16 8 9 9 14 18 12 20
-2 3 -10 -1 -16 -7z"/>
<path d="M24970 18270 c-6 -11 -8 -20 -6 -20 3 0 10 9 16 20 6 11 8 20 6 20
-3 0 -10 -9 -16 -20z"/>
<path d="M24925 18220 c-4 -6 -11 -8 -16 -5 -5 3 -6 -1 -3 -9 3 -9 11 -16 17
-16 6 0 7 3 4 7 -4 3 -2 12 4 20 6 7 9 13 6 13 -3 0 -9 -5 -12 -10z"/>
<path d="M24805 18079 c-4 -6 -4 -13 -1 -16 3 -4 6 -1 6 6 0 7 5 9 12 5 7 -4
8 -3 4 4 -9 15 -13 15 -21 1z"/>
<path d="M24746 18003 c-6 -14 -5 -15 5 -6 7 7 10 15 7 18 -3 3 -9 -2 -12 -12z"/>
<path d="M24413 17660 c-1 -11 2 -22 6 -24 4 -3 7 4 6 14 -2 27 -10 33 -12 10z"/>
<path d="M24346 17581 c-4 -5 -2 -12 3 -15 5 -4 12 -2 15 3 4 5 2 12 -3 15 -5
4 -12 2 -15 -3z"/>
<path d="M24284 17478 l-19 -23 23 19 c21 18 27 26 19 26 -2 0 -12 -10 -23
-22z"/>
<path d="M23868 17023 c-27 -32 -32 -49 -9 -28 13 11 25 18 26 15 2 -3 7 -1
12 4 5 5 3 6 -4 2 -7 -4 -13 -3 -13 3 0 5 6 12 13 14 7 3 7 6 1 6 -6 1 -18 -7
-26 -16z"/>
<path d="M23793 16928 c-18 -23 -25 -43 -8 -23 9 11 21 19 26 17 6 -1 8 2 4 8
-8 13 -10 13 -22 -2z"/>
<path d="M19478 16863 c7 -3 16 -2 19 1 4 3 -2 6 -13 5 -11 0 -14 -3 -6 -6z"/>
<path d="M19395 16840 c-3 -6 1 -7 9 -4 18 7 21 14 7 14 -6 0 -13 -4 -16 -10z"/>
<path d="M19488 16843 c6 -2 18 -2 25 0 6 3 1 5 -13 5 -14 0 -19 -2 -12 -5z"/>
<path d="M19272 16825 c-11 -13 -9 -15 15 -15 41 0 61 16 31 23 -30 9 -31 9
-46 -8z"/>
<path d="M18968 16783 c7 -3 16 -2 19 1 4 3 -2 6 -13 5 -11 0 -14 -3 -6 -6z"/>
<path d="M18950 16760 c0 -5 7 -7 15 -4 8 4 15 8 15 10 0 2 -7 4 -15 4 -8 0
-15 -4 -15 -10z"/>
<path d="M17570 16619 c0 -4 -8 -5 -18 -3 -9 3 -28 1 -41 -4 -24 -9 -24 -9 -3
-14 14 -4 20 -2 15 5 -4 6 2 8 17 4 13 -3 30 -1 37 5 7 6 13 7 13 2 0 -12 89
-9 100 2 5 5 -18 9 -56 9 -35 0 -64 -3 -64 -6z"/>
<path d="M17458 16593 c7 -3 16 -2 19 1 4 3 -2 6 -13 5 -11 0 -14 -3 -6 -6z"/>
<path d="M23371 16523 c0 -38 17 -93 18 -63 1 13 2 13 11 0 8 -12 10 -9 10 12
0 15 5 30 10 33 14 9 12 26 -2 24 -27 -3 -37 2 -32 16 4 8 1 15 -5 15 -6 0
-11 -16 -10 -37z"/>
<path d="M16800 16536 c0 -10 -13 -14 -46 -13 -29 0 -49 -5 -55 -14 -12 -19
33 -25 72 -8 16 6 58 13 92 14 86 3 87 4 42 20 -43 16 -73 19 -40 5 17 -7 15
-9 -12 -9 -18 -1 -33 4 -33 9 0 6 -4 10 -10 10 -5 0 -10 -6 -10 -14z"/>
<path d="M5303 15593 c9 -2 23 -2 30 0 6 3 -1 5 -18 5 -16 0 -22 -2 -12 -5z"/>
<path d="M19088 15593 c12 -2 30 -2 40 0 9 3 -1 5 -23 4 -22 0 -30 -2 -17 -4z"/>
<path d="M19158 15593 c7 -3 16 -2 19 1 4 3 -2 6 -13 5 -11 0 -14 -3 -6 -6z"/>
<path d="M19398 15573 c7 -3 16 -2 19 1 4 3 -2 6 -13 5 -11 0 -14 -3 -6 -6z"/>
<path d="M19858 15493 c6 -2 18 -2 25 0 6 3 1 5 -13 5 -14 0 -19 -2 -12 -5z"/>
<path d="M19991 15454 c0 -11 3 -14 6 -6 3 7 2 16 -1 19 -3 4 -6 -2 -5 -13z"/>
<path d="M17815 15430 c-16 -7 -17 -9 -3 -9 9 -1 20 4 23 9 7 11 7 11 -20 0z"/>
<path d="M6206 15422 c-2 -4 4 -8 14 -8 10 0 16 4 14 8 -3 4 -9 8 -14 8 -5 0
-11 -4 -14 -8z"/>
<path d="M17755 15416 c-11 -7 -29 -16 -40 -19 -16 -4 -15 -5 6 -6 15 0 37 8
50 19 27 22 14 27 -16 6z"/>
<path d="M20124 15409 c-4 -7 -1 -10 7 -7 8 3 29 -4 47 -14 36 -20 52 -23 52
-9 0 5 -13 12 -30 16 -16 4 -32 11 -35 16 -8 13 -32 11 -41 -2z"/>
<path d="M20338 15323 c7 -3 16 -2 19 1 4 3 -2 6 -13 5 -11 0 -14 -3 -6 -6z"/>
<path d="M20498 15266 c12 -7 20 -15 17 -19 -3 -4 -2 -5 2 -2 3 3 16 -1 27 -9
27 -17 95 -32 81 -18 -5 6 -23 12 -40 14 -16 2 -29 8 -28 14 1 7 -5 11 -15 10
-9 0 -16 4 -15 9 1 6 -11 11 -25 12 -27 1 -27 1 -4 -11z"/>
<path d="M6678 15223 c6 -2 18 -2 25 0 6 3 1 5 -13 5 -14 0 -19 -2 -12 -5z"/>
<path d="M3305 15190 c-3 -5 -2 -10 4 -10 5 0 13 5 16 10 3 6 2 10 -4 10 -5 0
-13 -4 -16 -10z"/>
<path d="M20702 15181 c-11 -7 -11 -9 0 -14 9 -3 15 1 15 9 0 8 -1 14 -1 14
-1 0 -7 -4 -14 -9z"/>
<path d="M20829 15112 c11 -8 11 -10 0 -14 -10 -3 -9 -6 3 -10 11 -5 15 -2 14
10 -2 9 -9 18 -17 20 -12 3 -12 2 0 -6z"/>
<path d="M20998 15008 c-4 -11 2 -19 20 -27 22 -9 24 -9 11 1 -9 7 -18 20 -21
27 -4 13 -5 12 -10 -1z"/>
<path d="M11310 14946 c0 -2 8 -10 18 -17 15 -13 16 -12 3 4 -13 16 -21 21
-21 13z"/>
<path d="M16799 14933 c-13 -16 -12 -17 4 -4 16 13 21 21 13 21 -2 0 -10 -8
-17 -17z"/>
<path d="M21090 14946 c0 -2 7 -7 16 -10 8 -3 12 -2 9 4 -6 10 -25 14 -25 6z"/>
<path d="M21336 14778 c5 -8 2 -9 -10 -5 -9 4 -15 3 -11 -2 3 -6 14 -9 25 -8
14 1 16 4 8 14 -13 16 -22 17 -12 1z"/>
<path d="M21405 14701 c-6 -10 11 -24 33 -27 6 -1 12 2 12 7 0 6 -8 9 -17 7
-10 -2 -17 3 -15 10 2 14 -4 16 -13 3z"/>
<path d="M16435 14669 c-4 -6 -5 -12 -2 -15 2 -3 7 2 10 11 7 17 1 20 -8 4z"/>
<path d="M22036 14067 c3 -10 9 -15 12 -12 3 3 0 11 -7 18 -10 9 -11 8 -5 -6z"/>
<path d="M22210 13811 c0 -6 4 -13 10 -16 6 -3 7 1 4 9 -7 18 -14 21 -14 7z"/>
<path d="M12305 13790 c3 -5 8 -10 11 -10 2 0 4 5 4 10 0 6 -5 10 -11 10 -5 0
-7 -4 -4 -10z"/>
<path d="M12343 13743 c0 -11 7 -20 14 -20 10 0 10 4 1 16 -7 9 -13 18 -15 20
-1 2 -1 -5 0 -16z"/>
<path d="M12384 13719 c-3 -6 -2 -15 3 -20 5 -5 9 -1 9 11 0 23 -2 24 -12 9z"/>
<path d="M376 13473 c-6 -14 -5 -15 5 -6 7 7 10 15 7 18 -3 3 -9 -2 -12 -12z"/>
<path d="M360 13430 c-8 -5 -11 -12 -7 -16 4 -4 13 -2 19 4 15 15 7 24 -12 12z"/>
<path d="M22588 13013 c5 -21 7 -23 10 -9 2 10 0 22 -6 28 -6 6 -7 0 -4 -19z"/>
<path d="M22610 12951 c0 -6 4 -13 10 -16 6 -3 7 1 4 9 -7 18 -14 21 -14 7z"/>
<path d="M169 12813 c0 -15 -2 -36 -4 -47 -6 -32 12 -3 20 31 3 18 2 34 -4 38
-7 4 -11 -5 -12 -22z"/>
<path d="M22665 12763 c4 -10 10 -28 12 -41 6 -27 19 -36 29 -21 4 7 3 9 -3 6
-6 -4 -13 10 -17 33 -3 22 -11 40 -17 40 -7 0 -8 -7 -4 -17z"/>
<path d="M22693 12663 c0 -11 7 -20 14 -20 10 0 10 4 1 16 -7 9 -13 18 -15 20
-1 2 -1 -5 0 -16z"/>
<path d="M22740 12460 c0 -5 5 -10 11 -10 5 0 7 5 4 10 -3 6 -8 10 -11 10 -2
0 -4 -4 -4 -10z"/>
<path d="M22760 12365 c0 -5 5 -17 10 -25 5 -8 10 -10 10 -5 0 6 -5 17 -10 25
-5 8 -10 11 -10 5z"/>
<path d="M22791 12204 c0 -11 3 -14 6 -6 3 7 2 16 -1 19 -3 4 -6 -2 -5 -13z"/>
<path d="M1292 11539 c-71 -7 -102 -20 -102 -43 0 -14 287 -11 322 3 23 10 23
10 -4 10 -15 1 -39 6 -55 12 -52 21 -87 25 -161 18z"/>
<path d="M15141 11513 c-9 -15 -12 -15 -19 -5 -7 11 -10 10 -16 -3 -5 -15 13
-16 224 -13 126 2 226 6 222 10 -4 4 -83 9 -175 12 -93 2 -171 7 -174 10 -13
13 -52 5 -62 -11z"/>
<path d="M8818 11513 c7 -3 16 -2 19 1 4 3 -2 6 -13 5 -11 0 -14 -3 -6 -6z"/>
<path d="M10122 11508 c-9 -11 20 -14 171 -16 171 -2 239 6 194 24 -9 3 -23 2
-30 -3 -12 -10 -157 -9 -263 2 -45 5 -63 3 -72 -7z"/>
<path d="M8520 11500 c-42 -7 -40 -7 25 -8 48 -1 65 1 55 8 -8 5 -19 9 -25 8
-5 0 -30 -4 -55 -8z"/>
<path d="M8763 11503 c9 -2 23 -2 30 0 6 3 -1 5 -18 5 -16 0 -22 -2 -12 -5z"/>
<path d="M7008 11493 c6 -2 18 -2 25 0 6 3 1 5 -13 5 -14 0 -19 -2 -12 -5z"/>
<path d="M13663 11493 c9 -2 25 -2 35 0 9 3 1 5 -18 5 -19 0 -27 -2 -17 -5z"/>
<path d="M13971 11174 c0 -11 3 -14 6 -6 3 7 2 16 -1 19 -3 4 -6 -2 -5 -13z"/>
<path d="M13974 11027 c3 -10 6 -26 7 -35 0 -9 5 -4 10 12 4 17 6 32 4 35 -3
2 -5 -2 -5 -10 0 -12 -2 -11 -11 1 -9 12 -10 12 -5 -3z"/>
<path d="M22772 11000 c0 -19 2 -27 5 -17 2 9 2 25 0 35 -3 9 -5 1 -5 -18z"/>
<path d="M22764 10908 c-1 -35 1 -35 14 0 7 21 7 29 -2 29 -6 0 -11 -13 -12
-29z"/>
<path d="M142 10575 c0 -16 2 -22 5 -12 2 9 2 23 0 30 -3 6 -5 -1 -5 -18z"/>
<path d="M160 10545 c-3 -24 0 -58 6 -64 10 -10 11 7 4 44 -4 22 -9 31 -10 20z"/>
<path d="M170 10454 c0 -8 5 -12 10 -9 6 4 8 11 5 16 -9 14 -15 11 -15 -7z"/>
<path d="M191 10374 c0 -11 3 -14 6 -6 3 7 2 16 -1 19 -3 4 -6 -2 -5 -13z"/>
<path d="M14110 10375 c-7 -9 -8 -15 -2 -15 5 0 12 7 16 15 3 8 4 15 2 15 -2
0 -9 -7 -16 -15z"/>
<path d="M14146 10295 c-9 -26 -7 -32 5 -12 6 10 9 21 6 23 -2 3 -7 -2 -11
-11z"/>
<path d="M260 10138 c0 -9 5 -20 10 -23 13 -8 13 5 0 25 -8 13 -10 13 -10 -2z"/>
<path d="M14181 10114 c0 -11 3 -14 6 -6 3 7 2 16 -1 19 -3 4 -6 -2 -5 -13z"/>
<path d="M9685 9829 c-4 -6 -4 -13 -1 -16 3 -4 6 -1 6 6 0 7 5 9 12 5 7 -4 8
-3 4 4 -9 15 -13 15 -21 1z"/>
<path d="M23565 9749 c-4 -6 -5 -12 -2 -15 2 -3 7 2 10 11 7 17 1 20 -8 4z"/>
<path d="M9650 9709 c0 -18 2 -19 15 -9 8 7 15 16 15 21 0 5 -7 9 -15 9 -9 0
-15 -9 -15 -21z"/>
<path d="M9629 9663 c-13 -16 -12 -17 4 -4 9 7 17 15 17 17 0 8 -8 3 -21 -13z"/>
<path d="M445 9659 c-4 -6 -5 -12 -2 -15 2 -3 7 2 10 11 7 17 1 20 -8 4z"/>
<path d="M9621 9604 c0 -11 3 -14 6 -6 3 7 2 16 -1 19 -3 4 -6 -2 -5 -13z"/>
<path d="M14374 9606 c1 -8 5 -18 8 -22 4 -3 5 1 4 10 -1 8 -5 18 -8 22 -4 3
-5 -1 -4 -10z"/>
<path d="M9554 9486 c-1 -17 1 -25 3 -18 3 6 9 10 14 6 5 -3 9 2 9 10 0 9 1
19 3 23 1 3 -5 7 -13 8 -10 2 -15 -7 -16 -29z"/>
<path d="M14426 9485 c-3 -8 -1 -15 4 -15 6 0 10 7 10 15 0 8 -2 15 -4 15 -2
0 -6 -7 -10 -15z"/>
<path d="M14451 9439 c-1 -9 5 -22 13 -29 12 -9 15 -8 13 9 0 11 -4 18 -8 15
-4 -2 -10 2 -12 8 -4 9 -6 7 -6 -3z"/>
<path d="M9500 9390 c0 -5 5 -10 10 -10 6 0 10 5 10 10 0 6 -4 10 -10 10 -5 0
-10 -4 -10 -10z"/>
<path d="M595 9320 c3 -5 8 -10 11 -10 2 0 4 5 4 10 0 6 -5 10 -11 10 -5 0 -7
-4 -4 -10z"/>
<path d="M14530 9291 c0 -6 4 -13 10 -16 6 -3 7 1 4 9 -7 18 -14 21 -14 7z"/>
<path d="M9053 8662 c1 -4 -8 -18 -20 -31 -30 -32 -20 -41 12 -11 25 24 33 50
15 50 -5 0 -9 -3 -7 -8z"/>
<path d="M8972 8551 c2 -5 -6 -17 -17 -25 -18 -13 -18 -15 -3 -16 21 0 43 36
28 45 -6 4 -9 2 -8 -4z"/>
<path d="M22841 8507 c-13 -21 -12 -21 5 -5 10 10 16 20 13 22 -3 3 -11 -5
-18 -17z"/>
<path d="M8910 8470 c-9 -6 -10 -10 -3 -10 6 0 15 5 18 10 8 12 4 12 -15 0z"/>
<path d="M8816 8377 c3 -10 9 -15 12 -12 3 3 0 11 -7 18 -10 9 -11 8 -5 -6z"/>
<path d="M8774 8305 c-4 -8 -11 -12 -17 -8 -6 3 -7 1 -3 -5 10 -16 14 -15 26
8 6 11 8 20 5 20 -3 0 -8 -7 -11 -15z"/>
<path d="M8463 7985 c0 -8 4 -12 9 -9 5 3 6 10 3 15 -9 13 -12 11 -12 -6z"/>
<path d="M15550 7956 c0 -3 9 -10 20 -16 11 -6 20 -8 20 -6 0 3 -9 10 -20 16
-11 6 -20 8 -20 6z"/>
<path d="M1665 7941 c-3 -5 -2 -12 3 -15 5 -3 9 1 9 9 0 17 -3 19 -12 6z"/>
<path d="M8366 7913 c-4 -5 -12 -8 -18 -8 -6 0 -13 -10 -14 -22 -5 -30 -2 -29
24 7 21 28 25 40 8 23z"/>
<path d="M15620 7896 c0 -2 8 -10 18 -17 15 -13 16 -12 3 4 -13 16 -21 21 -21
13z"/>
<path d="M1720 7886 c0 -2 7 -7 16 -10 8 -3 12 -2 9 4 -6 10 -25 14 -25 6z"/>
<path d="M21929 7633 c-13 -16 -12 -17 4 -4 9 7 17 15 17 17 0 8 -8 3 -21 -13z"/>
<path d="M21755 7511 c-6 -11 13 -26 22 -17 4 3 1 6 -6 6 -7 0 -9 5 -6 10 3 6
4 10 1 10 -3 0 -7 -4 -11 -9z"/>
<path d="M7689 7393 c-13 -16 -12 -17 4 -4 9 7 17 15 17 17 0 8 -8 3 -21 -13z"/>
<path d="M21470 7318 c0 -11 12 -10 30 2 12 7 10 9 -8 7 -12 0 -22 -5 -22 -9z"/>
<path d="M2725 7191 c-3 -5 -2 -12 3 -15 5 -3 9 1 9 9 0 17 -3 19 -12 6z"/>
<path d="M2750 7186 c0 -3 9 -10 20 -16 11 -6 20 -8 20 -6 0 3 -9 10 -20 16
-11 6 -20 8 -20 6z"/>
<path d="M16670 7166 c0 -2 7 -7 16 -10 8 -3 12 -2 9 4 -6 10 -25 14 -25 6z"/>
<path d="M16750 7123 c8 -3 23 -10 32 -15 14 -6 16 -5 12 7 -4 8 -18 15 -33
14 -15 0 -20 -3 -11 -6z"/>
<path d="M16816 7105 c-3 -8 -1 -15 4 -15 13 0 22 18 11 24 -5 3 -11 -1 -15
-9z"/>
<path d="M16850 7076 c0 -2 7 -7 16 -10 8 -3 12 -2 9 4 -6 10 -25 14 -25 6z"/>
<path d="M16895 7060 c3 -5 10 -10 16 -10 5 0 9 5 9 10 0 6 -7 10 -16 10 -8 0
-12 -4 -9 -10z"/>
<path d="M3043 7035 c0 -8 4 -12 9 -9 5 3 6 10 3 15 -9 13 -12 11 -12 -6z"/>
<path d="M16960 7024 c0 -9 3 -15 6 -11 3 3 17 2 31 -4 14 -5 22 -5 19 0 -4 5
0 11 6 14 7 3 4 5 -7 5 -11 -1 -28 3 -37 7 -13 5 -18 2 -18 -11z"/>
<path d="M6908 6973 c7 -3 16 -2 19 1 4 3 -2 6 -13 5 -11 0 -14 -3 -6 -6z"/>
<path d="M6796 6938 c3 -5 10 -6 15 -3 13 9 11 12 -6 12 -8 0 -12 -4 -9 -9z"/>
<path d="M3345 6920 c-3 -5 -1 -10 4 -10 6 0 11 5 11 10 0 6 -2 10 -4 10 -3 0
-8 -4 -11 -10z"/>
<path d="M17240 6926 c0 -2 9 -6 20 -9 11 -3 18 -1 14 4 -5 9 -34 13 -34 5z"/>
<path d="M3390 6900 c0 -5 4 -10 9 -10 6 0 13 5 16 10 3 6 -1 10 -9 10 -9 0
-16 -4 -16 -10z"/>
<path d="M3485 6870 c27 -12 43 -12 25 0 -8 5 -22 9 -30 9 -10 0 -8 -3 5 -9z"/>
<path d="M17435 6861 c-3 -5 0 -13 6 -17 7 -4 9 -3 5 4 -3 5 0 13 6 15 9 4 10
6 1 6 -6 1 -14 -3 -18 -8z"/>
<path d="M3550 6846 c0 -2 11 -6 25 -8 13 -3 22 -1 19 3 -5 9 -44 13 -44 5z"/>
<path d="M17485 6830 c3 -5 11 -10 16 -10 6 0 7 5 4 10 -3 6 -11 10 -16 10 -6
0 -7 -4 -4 -10z"/>
<path d="M17550 6830 c-39 -7 -34 -11 44 -34 27 -8 53 -13 58 -10 5 3 14 1 21
-5 7 -5 33 -14 57 -20 40 -9 43 -8 26 5 -11 8 -32 14 -48 14 -16 0 -27 5 -25
11 1 7 -14 16 -33 21 -19 4 -42 12 -50 16 -8 4 -31 5 -50 2z"/>
<path d="M3640 6820 c0 -5 9 -10 20 -10 11 0 20 5 20 10 0 6 -9 10 -20 10 -11
0 -20 -4 -20 -10z"/>
<path d="M3720 6791 c8 -4 29 -11 45 -15 19 -4 25 -3 15 3 -8 4 -28 11 -45 15
-19 4 -25 3 -15 -3z"/>
<path d="M17746 6792 c-3 -5 1 -9 9 -9 8 0 12 4 9 9 -3 4 -7 8 -9 8 -2 0 -6
-4 -9 -8z"/>
<path d="M3815 6770 c27 -12 43 -12 25 0 -8 5 -22 9 -30 9 -10 0 -8 -3 5 -9z"/>
<path d="M17810 6750 c0 -5 5 -10 11 -10 5 0 7 5 4 10 -3 6 -8 10 -11 10 -2 0
-4 -4 -4 -10z"/>
<path d="M17945 6720 c3 -5 14 -10 23 -10 15 0 15 2 2 10 -20 13 -33 13 -25 0z"/>
<path d="M4150 6700 c-11 -7 -6 -10 20 -10 26 0 31 3 20 10 -8 5 -17 10 -20
10 -3 0 -12 -5 -20 -10z"/>
<path d="M4231 6686 c12 -10 60 -16 54 -6 -3 5 -18 10 -32 10 -15 0 -24 -2
-22 -4z"/>
<path d="M18120 6686 c0 -2 11 -6 25 -8 13 -3 22 -1 19 3 -5 9 -44 13 -44 5z"/>
<path d="M18230 6680 c12 -8 12 -10 1 -10 -8 0 -12 -2 -9 -5 3 -3 13 -2 22 1
14 5 15 9 4 15 -7 5 -17 9 -23 9 -5 0 -3 -5 5 -10z"/>
<path d="M4488 6643 c7 -3 16 -2 19 1 4 3 -2 6 -13 5 -11 0 -14 -3 -6 -6z"/>
<path d="M18413 6643 c9 -2 25 -2 35 0 9 3 1 5 -18 5 -19 0 -27 -2 -17 -5z"/>
<path d="M18508 6633 c7 -3 16 -2 19 1 4 3 -2 6 -13 5 -11 0 -14 -3 -6 -6z"/>
<path d="M4678 6623 c6 -2 18 -2 25 0 6 3 1 5 -13 5 -14 0 -19 -2 -12 -5z"/>
<path d="M4815 6620 c28 -12 47 -12 40 0 -3 6 -18 10 -33 9 -24 0 -25 -1 -7
-9z"/>
</g>
</svg>
